<?xml version="1.0" encoding="UTF-8"?>
<svg xmlns="http://www.w3.org/2000/svg" version="1.1" viewBox="0 0 595.28 841.89">
  <defs>
    <style>
      .cls-1 {
        fill: #231f20;
      }
    </style>
  </defs>
  <!-- Generator: Adobe Illustrator 28.6.0, SVG Export Plug-In . SVG Version: 1.2.0 Build 709)  -->
  <g>
    <g id="Layer_1">
      <g>
        <g>
          <path class="cls-1" d="M249.41,476.06c-2,0-3.93-.39-5.78-1.18s-3.36-1.9-4.54-3.34l1.31-1.29c1.05,1.27,2.39,2.24,4.03,2.92,1.63.68,3.31,1.02,5.04,1.02,1.35,0,2.59-.21,3.7-.64s1.99-1.06,2.64-1.9c.65-.84.98-1.87.98-3.09,0-1.14-.34-2.07-1.02-2.78-.68-.72-1.54-1.27-2.58-1.66-1.04-.39-2.43-.81-4.18-1.26l-.34-.09c-1.81-.44-3.3-.9-4.45-1.38-1.16-.47-2.14-1.17-2.94-2.09-.8-.92-1.2-2.13-1.2-3.62,0-1.39.4-2.61,1.21-3.66.81-1.05,1.9-1.86,3.29-2.43,1.39-.58,2.94-.87,4.67-.87,1.62,0,3.2.28,4.72.83,1.53.55,2.85,1.34,3.98,2.37l-1.2,1.39c-.95-.86-2.08-1.53-3.4-2-1.31-.47-2.66-.71-4.03-.71s-2.51.21-3.62.62c-1.11.41-1.99,1.01-2.65,1.79-.66.78-.99,1.7-.99,2.75s.31,1.91.93,2.56c.62.66,1.41,1.17,2.36,1.54.95.37,2.22.76,3.82,1.18.05.01.1.03.16.04.05.01.12.03.18.04.05.01.1.03.14.05.04.02.09.04.14.05,1.94.51,3.51,1.02,4.73,1.53,1.22.51,2.23,1.24,3.04,2.17.81.93,1.22,2.15,1.22,3.66,0,1.6-.42,2.96-1.26,4.1s-1.97,1.99-3.39,2.56-2.99.87-4.71.87Z"/>
          <path class="cls-1" d="M263.26,475.73v-19.52h1.81v5.87l.08,1.08v12.56h-1.88ZM264.19,461.02c.3-1.09.8-2.03,1.48-2.81.69-.79,1.5-1.39,2.43-1.82.94-.42,1.93-.64,2.98-.64,1.39,0,2.62.31,3.68.93,1.07.62,1.9,1.52,2.49,2.69.6,1.17.9,2.56.9,4.15v12.2h-1.88v-11.99c0-1.22-.22-2.29-.65-3.23s-1.05-1.66-1.85-2.18c-.81-.51-1.76-.77-2.86-.77s-2.03.29-2.91.86c-.88.57-1.58,1.35-2.1,2.35-.52,1-.77,2.13-.76,3.41l-.95-3.16ZM277.19,461.02c.32-1.09.82-2.03,1.51-2.81.69-.79,1.5-1.39,2.44-1.82.94-.42,1.93-.64,2.96-.64,1.41,0,2.64.31,3.71.93,1.07.62,1.9,1.52,2.49,2.69.6,1.17.9,2.56.9,4.15v12.2h-1.9v-11.99c0-1.22-.21-2.29-.64-3.23-.42-.94-1.04-1.66-1.86-2.18-.82-.51-1.77-.77-2.84-.77s-2.06.29-2.93.86c-.88.57-1.58,1.35-2.09,2.35-.51,1-.77,2.13-.77,3.41l-.97-3.16Z"/>
          <path class="cls-1" d="M304.67,476.19c-1.74,0-3.33-.45-4.77-1.36-1.44-.9-2.59-2.13-3.43-3.69s-1.26-3.27-1.26-5.14.42-3.61,1.26-5.16c.84-1.55,1.99-2.78,3.43-3.69,1.44-.9,3.03-1.36,4.75-1.36s3.36.47,4.75,1.41c1.39.94,2.47,2.19,3.25,3.74s1.16,3.24,1.16,5.05-.39,3.5-1.17,5.05c-.78,1.56-1.86,2.8-3.25,3.73-1.39.93-2.96,1.4-4.72,1.4ZM304.76,474.35c1.46,0,2.77-.36,3.95-1.09,1.18-.73,2.11-1.72,2.8-2.98s1.04-2.68,1.04-4.27-.35-2.96-1.04-4.25c-.69-1.28-1.62-2.29-2.8-3.02-1.18-.73-2.49-1.09-3.93-1.09s-2.75.37-3.91,1.1c-1.17.74-2.09,1.74-2.77,3.01-.68,1.27-1.01,2.69-1.01,4.25s.34,2.99,1.01,4.26c.68,1.27,1.6,2.26,2.77,2.99,1.16.73,2.46,1.09,3.89,1.09ZM312.68,466.4l-.23-5.47v-4.71h1.88v10.19h-1.65ZM314.34,464.2v11.53h-1.86v-4.1l.48-5.61-.1-4.25,1.48,2.43Z"/>
          <path class="cls-1" d="M320.62,475.73v-19.52h1.81v5.87l.08,1.08v12.56h-1.88ZM322.05,460.99c.25-.96.69-1.84,1.3-2.63s1.37-1.42,2.25-1.87c.88-.46,1.83-.68,2.83-.68.71,0,1.44.12,2.18.35.74.23,1.48.58,2.21,1.03l-.86,1.56c-.6-.39-1.21-.68-1.83-.87-.62-.18-1.23-.28-1.81-.28-1.03,0-1.99.33-2.91.99-.91.66-1.63,1.57-2.17,2.74-.53,1.16-.78,2.48-.74,3.93l-.46-4.28Z"/>
          <path class="cls-1" d="M337.42,475.73v-17.75h-3.61v-1.77h3.59v-4.94l1.9-.32v5.26h5.24v1.77h-5.23v17.75h-1.9Z"/>
          <path class="cls-1" d="M358.02,475.73v-26.7h1.98v24.8h14.74v1.9h-16.72Z"/>
          <path class="cls-1" d="M386.56,476.21c-1.83,0-3.52-.45-5.06-1.35-1.54-.9-2.76-2.13-3.67-3.7-.91-1.57-1.36-3.28-1.36-5.14s.45-3.59,1.36-5.15,2.13-2.79,3.67-3.7c1.54-.91,3.24-1.36,5.09-1.36s3.49.45,5.02,1.36c1.54.9,2.76,2.14,3.67,3.7.9,1.56,1.36,3.27,1.36,5.15s-.45,3.59-1.35,5.15-2.12,2.79-3.68,3.69c-1.55.9-3.23,1.35-5.05,1.35ZM386.58,474.4c1.48,0,2.85-.37,4.09-1.11,1.25-.74,2.24-1.75,2.97-3.02s1.09-2.69,1.09-4.25-.36-2.96-1.09-4.25c-.73-1.29-1.72-2.31-2.97-3.04s-2.62-1.1-4.09-1.1-2.87.37-4.12,1.1-2.25,1.75-2.99,3.04c-.74,1.29-1.11,2.71-1.11,4.25s.37,2.97,1.11,4.25c.74,1.27,1.74,2.28,2.99,3.02s2.63,1.11,4.12,1.11Z"/>
          <path class="cls-1" d="M410.1,476.21c-1.84,0-3.53-.45-5.08-1.36-1.55-.91-2.78-2.14-3.69-3.7-.91-1.56-1.36-3.27-1.36-5.13s.45-3.59,1.36-5.16,2.13-2.8,3.69-3.7c1.55-.9,3.24-1.35,5.08-1.35,1.43,0,2.76.26,3.97.77,1.22.51,2.29,1.24,3.23,2.17l-1.05,1.33c-.82-.8-1.75-1.42-2.77-1.85s-2.13-.66-3.3-.66c-1.51,0-2.9.37-4.17,1.11-1.27.74-2.28,1.76-3.03,3.05-.75,1.29-1.12,2.72-1.12,4.27s.37,2.98,1.12,4.26c.75,1.28,1.76,2.29,3.04,3.04s2.66,1.12,4.14,1.12c1.2,0,2.32-.22,3.34-.66s1.95-1.05,2.77-1.83l1.04,1.33c-.95.92-2.04,1.64-3.27,2.16s-2.55.77-3.95.77Z"/>
          <path class="cls-1" d="M421.48,475.73v-28.41h1.9v28.41h-1.9ZM422.79,470.07l-.09-2.28,11.8-11.57h2.51l-14.21,13.85ZM435.95,475.73l-8.59-10.56,1.29-1.33,9.59,11.9h-2.3Z"/>
        </g>
        <g>
          <path class="cls-1" d="M251.43,417.51v12.38h24.97v10.94h-36.55v-56.73h35.12v10.94h-23.54v11.59h22.61v10.87h-22.61Z"/>
          <path class="cls-1" d="M286.57,384.1h11.66v39.49c0,3.24,1.43,5.51,4.29,6.8,1.1.48,2.26.72,3.51.72,2.91,0,5.08-1.1,6.51-3.29.76-1.24,1.14-2.65,1.14-4.22v-39.49h11.66v39.13c0,6.72-2.58,11.83-7.73,15.31-3.39,2.29-7.27,3.43-11.66,3.43-5.67,0-10.37-1.79-14.09-5.37-3.53-3.48-5.29-7.94-5.29-13.38v-39.13Z"/>
          <path class="cls-1" d="M349.89,384.1c5.44,0,10.06,2,13.88,6.01,3.58,3.82,5.37,8.27,5.37,13.38,0,5.48-1.98,10.11-5.94,13.88-1.19,1.14-2.48,2.1-3.86,2.86l13.81,20.6h-13.09l-11.66-18.67v18.67h-11.66v-56.73h13.16ZM348.39,395.05v16.74c3.01,0,5.34-1.22,7.01-3.65.95-1.43,1.43-2.98,1.43-4.65,0-2.96-1.21-5.27-3.65-6.94-1.48-1-3.07-1.5-4.79-1.5Z"/>
          <path class="cls-1" d="M407.63,383.39c9.44,0,16.81,3.31,22.1,9.94,4.34,5.39,6.51,11.8,6.51,19.24s-2.27,14.12-6.8,19.46c-5.34,6.34-12.61,9.51-21.82,9.51s-16.95-3.34-22.25-10.01c-4.24-5.29-6.36-11.61-6.36-18.96s2.22-14.09,6.65-19.53c5.39-6.39,12.71-9.61,21.96-9.66ZM407.63,394.33c-6.11,0-10.68,2.48-13.74,7.44-1.91,3.15-2.86,6.72-2.86,10.73,0,5.53,1.67,10.04,5.01,13.52,3.05,3.1,6.91,4.65,11.59,4.65,6.1,0,10.68-2.5,13.73-7.51,1.86-3.15,2.79-6.7,2.79-10.66,0-5.58-1.69-10.11-5.08-13.59-3-3.05-6.82-4.58-11.44-4.58Z"/>
        </g>
        <g>
          <path class="cls-1" d="M162.47,320.32c.1.9.29,1.8.29,2.7.02,34.38.04,68.75-.03,103.13,0,3.13,1.18,5.31,3.92,6.49,2.95,1.27,5.92,1.16,8.54-.97,1.64-1.33,2.11-3.12,2.11-5.23-.04-34.38-.03-68.75-.02-103.13,0-1.02.18-2.03.28-3.05.34,0,.68,0,1.03,0,.1.95.3,1.9.3,2.84.02,14.88,0,29.77,0,44.65,0,19.64,0,39.29,0,58.93,0,5.02-3.42,8.26-8.72,8.25-5.42,0-8.93-3.26-8.93-8.31,0-34.38-.01-68.75,0-103.13,0-1.06.15-2.11.23-3.17.33,0,.67-.01,1-.02Z"/>
          <path class="cls-1" d="M154.76,338.19c.13.87.37,1.73.37,2.6.03,15.19.02,30.37.03,45.56,0,13.37,0,26.75,0,40.12,0,8.57,6.56,15.3,14.88,15.32,8.28.01,14.89-6.78,14.89-15.32,0-28.11,0-56.21,0-84.32,0-.53-.09-1.08.02-1.58.18-.78.5-1.52.76-2.28.28.76.79,1.53.79,2.29.04,28.86.05,57.72.02,86.58,0,6.89-5.5,14.03-11.97,15.72-7.56,1.97-14.64-.89-18.47-7.53-1.65-2.85-2.53-5.88-2.52-9.26.07-28.41.04-56.82.06-85.22,0-.89.2-1.77.31-2.65.28,0,.55,0,.83,0Z"/>
          <path class="cls-1" d="M147.72,356.56c.07,1.03.2,2.06.2,3.09,0,21.38-.04,42.77-.03,64.15,0,4.7.31,9.35,2.15,13.79,2.55,6.15,7.06,9.98,13.56,11.11,3.31.58,6.8.85,10.12.48,11.48-1.26,17.93-8.49,18.42-20.63.29-7.17.11-14.35.12-21.53,0-16.02-.01-32.04.04-48.06,0-.82.54-1.63.83-2.45.25.85.71,1.71.71,2.56.05,11.11.03,22.21.04,33.32,0,10.88.04,21.76.02,32.64,0,4.79-.6,9.47-2.6,13.92-2.52,5.6-6.64,9.25-12.55,10.89-6.13,1.71-12.26,1.67-18.31-.32-8.28-2.73-12.07-9.13-13.51-17.21-.49-2.73-.57-5.56-.57-8.35-.04-21.61-.02-43.22,0-64.83,0-.91.22-1.81.34-2.72.34.05.68.09,1.02.14Z"/>
          <path class="cls-1" d="M201.54,376.83c.16.72.45,1.43.45,2.15.02,16.16.14,32.33-.03,48.49-.15,14.57-8.42,26.18-21.09,30.16-14.46,4.54-29.47-.23-37.18-11.89-3.59-5.44-5.34-11.51-5.37-17.99-.09-16.24-.04-32.48-.01-48.72,0-.73.26-1.45.39-2.18.28,0,.56-.02.85-.02.12.86.35,1.72.35,2.57.02,15.94-.03,31.88.04,47.81.04,8.67,2.7,16.46,9.14,22.44,9.27,8.62,20.34,9.9,31.92,6.15,11.14-3.61,16.94-12.1,18.92-23.35.4-2.29.46-4.66.46-6.99.04-15.33.01-30.67.03-46,0-.85.16-1.7.25-2.54.3-.03.59-.05.89-.08Z"/>
          <path class="cls-1" d="M209.37,394.11c.16.43.48.87.47,1.3-.11,12.08.31,24.2-.54,36.23-1.11,15.66-13.66,29.86-29,34.24-15.08,4.31-31.29-1.13-41.33-13.77-6.27-7.89-9.23-16.85-9.22-26.88.01-9.59,0-19.19,0-28.78,0-.77.21-1.54.31-2.32l.86-.08c.14.81.4,1.62.4,2.43.03,9.59.06,19.19.01,28.78-.06,11.56,4.03,21.41,12.22,29.5,17.45,17.24,45.16,13.68,58.54-7.39,4.45-7,6.23-14.65,6.21-22.83-.02-9.29-.01-18.58,0-27.87,0-.84.17-1.68.27-2.52.26-.02.52-.03.78-.05Z"/>
          <path class="cls-1" d="M216.11,414.93c.19.36.55.71.55,1.07.18,7.85.89,15.72-.94,23.48-4.87,20.71-26.28,37.65-47.37,36.42-18.33-1.07-31.61-10.83-40.45-26.75-3.69-6.64-5.02-13.87-4.95-21.39.03-3.63.12-7.25.23-10.88.02-.66.24-1.31.37-1.96h.76c.13.73.35,1.45.36,2.17.05,5.29-.31,10.61.15,15.85,1.21,13.83,8.3,24.4,19.23,32.48,7.7,5.7,16.37,9.33,26.1,8.96,17.04-.65,29.71-9.05,38.79-23.16,4.36-6.77,6.44-14.28,6.38-22.35-.03-3.93-.11-7.86-.12-11.79,0-.72.24-1.44.37-2.16.18,0,.35,0,.53,0Z"/>
          <path class="cls-1" d="M170.13,303.96c1.22,1.51,1.19,120.83-.03,122.18-1.04-1.66-1.01-120.63.03-122.18Z"/>
        </g>
      </g>
    </g>
  </g>
</svg>