<svg width="97" height="26" viewBox="0 0 97 26" fill="none" xmlns="http://www.w3.org/2000/svg">
<path d="M3.99976 7H19.9998L18.4198 21.22C18.3656 21.7094 18.1328 22.1616 17.766 22.49C17.3992 22.8184 16.9241 23 16.4318 23H7.56776C7.07539 23 6.60032 22.8184 6.2335 22.49C5.86669 22.1616 5.63392 21.7094 5.57976 21.22L3.99976 7Z" stroke="#4295E4" stroke-width="1.5" stroke-linecap="round" stroke-linejoin="round"/>
<path d="M7.345 4.147C7.50675 3.80397 7.76271 3.514 8.083 3.31091C8.4033 3.10782 8.77474 3 9.154 3H14.846C15.2254 2.99981 15.5971 3.10755 15.9176 3.31064C16.2381 3.51374 16.4942 3.80381 16.656 4.147L18 7H6L7.345 4.147Z" stroke="#4295E4" stroke-width="1.5" stroke-linecap="round" stroke-linejoin="round"/>
<path d="M2.00024 7H22.0002" stroke="#4295E4" stroke-width="1.5" stroke-linecap="round" stroke-linejoin="round"/>
<path d="M9.99976 12V17" stroke="#4295E4" stroke-width="1.5" stroke-linecap="round" stroke-linejoin="round"/>
<path d="M14.0002 12V17" stroke="#4295E4" stroke-width="1.5" stroke-linecap="round" stroke-linejoin="round"/>
<path d="M38.4453 19.0859C40.2266 19.0859 41.1484 18.1953 42.1875 15.7734L45.6406 7.72656H43.8125L41.0781 14.6562H40.9609L38.1406 7.72656H36.2812L40.0938 16.4922C39.6641 17.2422 39.125 17.5469 38.3438 17.5469C38.0859 17.5469 37.8516 17.5234 37.6953 17.4844V18.9844C37.7969 19.0312 38.1016 19.0859 38.4453 19.0859ZM46.7109 21.2266V19H52.7734V21.2266H54.3281V17.6484H53.0547V10.7812H47.0625L46.7656 15.1875C46.6875 16.2969 46.4141 17.2734 45.8125 17.6484H45.1484V21.2266H46.7109ZM51.3594 17.6484H47.625V17.6094C48.0234 17.0703 48.2266 16.2422 48.2891 15.2578L48.5156 12.1328H51.3594V17.6484ZM57.8984 19.1484C58.9922 19.1484 59.9375 18.5859 60.4141 17.7031H60.4531V19H62.1406V13.3359C62.1406 11.6875 60.8672 10.625 58.8594 10.625C56.8359 10.625 55.6094 11.7109 55.4922 13.125L55.4844 13.2109H57.0781L57.0938 13.1406C57.2344 12.4844 57.8359 12.0234 58.8125 12.0234C59.8594 12.0234 60.4531 12.5703 60.4531 13.4766V14.0938L58.2109 14.2266C56.2656 14.3438 55.1562 15.2188 55.1562 16.6484V16.6641C55.1562 18.1406 56.2578 19.1484 57.8984 19.1484ZM56.8594 16.625V16.6094C56.8594 15.9141 57.4219 15.4688 58.4375 15.4062L60.4531 15.2812V15.9219C60.4531 16.9922 59.5469 17.7969 58.3594 17.7969C57.4531 17.7969 56.8594 17.3438 56.8594 16.625ZM66.4766 15.3125L66.7031 12.125H69.5391V19H71.2266V10.7812H65.2188L64.9219 15.2266C64.8203 16.7188 64.5312 17.5703 63.6797 17.5703C63.4688 17.5703 63.3203 17.5391 63.2422 17.5156V18.9922C63.3594 19.0312 63.5938 19.0781 63.9141 19.0781C65.7578 19.0781 66.3125 17.6172 66.4766 15.3125ZM73.0469 19H74.7109L78.4844 13.2266H78.5547V19H80.2344V10.7812H78.5703L74.7969 16.5312H74.7188V10.7812H73.0469V19ZM88.2969 10.7812H81.4609V12.125H84.0312V19H85.7266V12.125H88.2969V10.7812ZM89.5312 19H92.7812C94.6797 19 95.9062 17.8984 95.9062 16.1641V16.1484C95.9062 14.4219 94.6797 13.3203 92.7812 13.3203H91.2188V10.7812H89.5312V19ZM92.6172 14.6562C93.5703 14.6562 94.1797 15.2422 94.1797 16.1484V16.1641C94.1797 17.0703 93.5781 17.6641 92.6172 17.6641H91.2188V14.6562H92.6172Z" fill="#4295E4"/>
</svg>
